<svg xmlns="http://www.w3.org/2000/svg" viewBox="0 0 1440 320"><path fill="#0099ff" fill-opacity="0.99" d="M0,64L26.7,69.3C53.3,75,107,85,160,112C213.3,139,267,181,320,202.7C373.3,224,427,224,480,213.3C533.3,203,587,181,640,176C693.3,171,747,181,800,160C853.3,139,907,85,960,58.7C1013.3,32,1067,32,1120,69.3C1173.3,107,1227,181,1280,176C1333.3,171,1387,85,1413,42.7L1440,0L1440,0L1413.3,0C1386.7,0,1333,0,1280,0C1226.7,0,1173,0,1120,0C1066.7,0,1013,0,960,0C906.7,0,853,0,800,0C746.7,0,693,0,640,0C586.7,0,533,0,480,0C426.7,0,373,0,320,0C266.7,0,213,0,160,0C106.7,0,53,0,27,0L0,0Z"></path></svg>